<?xml version="1.0" encoding="utf-8"?>
<!-- Generator: Adobe Illustrator 16.0.0, SVG Export Plug-In . SVG Version: 6.00 Build 0)  -->
<!DOCTYPE svg PUBLIC "-//W3C//DTD SVG 1.1//EN" "http://www.w3.org/Graphics/SVG/1.1/DTD/svg11.dtd">
<svg version="1.1" xmlns="http://www.w3.org/2000/svg" xmlns:xlink="http://www.w3.org/1999/xlink" x="0px" y="0px"
	 width="733.083px" height="733.094px" viewBox="-43.083 18.406 733.083 733.094"
	 enable-background="new -43.083 18.406 733.083 733.094" xml:space="preserve">
<g id="Capa_2">
	<circle fill="#FFFFFF" stroke="#000000" stroke-width="3" stroke-miterlimit="10" cx="323.5" cy="385" r="365"/>
</g>
<g id="Capa_1">
	<g>
		<path fill="#FFC107" d="M153,281.25c0-10.557-8.568-19.125-19.125-19.125H19.125C8.568,262.125,0,270.693,0,281.25
			s8.568,19.125,19.125,19.125h114.75C144.432,300.375,153,291.807,153,281.25z"/>
		<path fill="#FFC107" d="M133.875,338.625h-76.5c-10.557,0-19.125,8.568-19.125,19.125s8.568,19.125,19.125,19.125h76.5
			c10.557,0,19.125-8.568,19.125-19.125S144.432,338.625,133.875,338.625z"/>
		<path fill="#FFC107" d="M133.875,415.125h-38.25c-10.557,0-19.125,8.568-19.125,19.125s8.568,19.125,19.125,19.125h38.25
			c10.557,0,19.125-8.568,19.125-19.125S144.432,415.125,133.875,415.125z"/>
	</g>
	<path fill="#F44336" d="M609.284,405.295l-57.375-95.625c-3.442-5.776-9.677-9.295-16.409-9.295H401.625
		c-10.557,0-19.125,8.568-19.125,19.125v191.25c0,10.557,8.568,19.125,19.125,19.125h191.25c10.557,0,19.125-8.568,19.125-19.125
		v-95.625C612,411.645,611.082,408.24,609.284,405.295z"/>
	<polygon fill="#FAFAFA" points="459,338.625 524.675,338.625 570.575,415.125 459,415.125 	"/>
	<path fill="#FFC107" d="M401.625,223.875h-267.75c-10.557,0-19.125,8.568-19.125,19.125v267.75
		c0,10.557,8.568,19.125,19.125,19.125H420.75V243C420.75,232.443,412.182,223.875,401.625,223.875z"/>
	<circle fill="#FAFAFA" cx="516.375" cy="510.75" r="38.25"/>
	<path fill="#455A64" d="M516.375,568.125c-31.633,0-57.375-25.742-57.375-57.375s25.742-57.375,57.375-57.375
		s57.375,25.742,57.375,57.375S548.008,568.125,516.375,568.125z M516.375,491.625c-10.519,0-19.125,8.606-19.125,19.125
		s8.606,19.125,19.125,19.125s19.125-8.606,19.125-19.125S526.894,491.625,516.375,491.625z"/>
	<path fill="#F44336" d="M420.75,529.875H133.875c-10.557,0-19.125-8.568-19.125-19.125v-57.375h306V529.875z"/>
	<circle fill="#FAFAFA" cx="248.625" cy="510.75" r="38.25"/>
	<path fill="#455A64" d="M248.625,568.125c-31.633,0-57.375-25.742-57.375-57.375s25.742-57.375,57.375-57.375
		S306,479.117,306,510.75S280.258,568.125,248.625,568.125z M248.625,491.625c-10.557,0-19.125,8.606-19.125,19.125
		s8.568,19.125,19.125,19.125s19.125-8.606,19.125-19.125S259.182,491.625,248.625,491.625z"/>
</g>
</svg>
